<?xml version="1.0" encoding="UTF-8" standalone="no"?>
<svg xmlns="http://www.w3.org/2000/svg" version="1.1"
    width="400" height="400"
    viewBox="-500 -500 600 600"
>
<defs>
    <marker id="Arrowhead"
        viewBox="0 0 10 10" refX="0" refY="5" 
        markerUnits="strokeWidth"
        markerWidth="12" markerHeight="9"
        orient="auto">
        <path d="M 0 0 L 10 5 L 0 10 z" />
    </marker>
</defs>


    <circle cx="-200" cy="50" r="300" fill="none" stroke="black" stroke-width="60.0" stroke-opacity="0.15" />
    <circle cx="-200" cy="50" r="330" fill="none" stroke="black" style="stroke-dasharray:4,2;" stroke-width="1.5" />
    <circle cx="-200" cy="50" r="270" fill="none" stroke="black" stroke-width="2" />
    <circle cx="-200" cy="50" r="5" fill="black" />
    
    <g id="sectors" stroke="blue" style="stroke-dasharray:4,2;" stroke-width="1.75">
        <line x1="-1000" y1="-300" x2="1000" y2="-300" />
        <line x1="-1000" y1="-150" x2="1000" y2="-150" />
        <line x1="-300" y1="-1000" x2="-300" y2="1000" />
        <line x1="-150" y1="-1000" x2="-150" y2="1000" />
    </g>
    <rect x="-300" y="-300" width="150" height="150" fill="none" stroke="blue" stroke-width="2"/>
    <g id="sectortext" stroke="black" fill="blue" font-size="30">
        <text x="-385" y="-365">1</text>
        <text x="-235" y="-365">2</text>
        <text x="-85" y="-365">3</text>
        <text x="-385" y="-215">4</text>
        <text x="-235" y="-215">5</text>
        <text x="-85" y="-215">6</text>
        <text x="-385" y="-65">7</text>
        <text x="-235" y="-65">8</text>
        <text x="-85" y="-65">9</text>
    </g>
    
    <g id="distances" stroke="black" stroke-width="2">
        <line x1="-200" y1="50" x2 ="-291" y2="-278" marker-end="url(#Arrowhead)" />
        <line x1="-200" y1="50" x2 ="-200" y2="-127" marker-end="url(#Arrowhead)" />
    </g>
<!--

    <circle cx="100" cy="150" r="400" fill="none" stroke="black" stroke-width="60.0" stroke-opacity="0.05" />
    <circle cx="100" cy="150" r="430" fill="none" stroke="black" style="stroke-dasharray:4,2;" stroke-width="1.5" stroke-opacity="0.3" />
    <circle cx="100" cy="150" r="370" fill="none" stroke="black" stroke-width="2" stroke-opacity="0.3" />

    <g id="grid" stroke="blue" fill="none">
        <rect x="300" y="-200" width="150" height="150" />
        <rect x="450" y="-200" width="150" height="150" />
        <rect x="300" y="-50" width="150" height="150" />
        <rect x="450" y="-50" width="150" height="150" />
        <rect x="300" y="100" width="150" height="150" />
        <rect x="450" y="100" width="150" height="150" />
        <rect x="300" y="250" width="150" height="150" />
        <rect x="450" y="250" width="150" height="150" />
    </g>

    <g id="numbers" stroke="black" fill="blue" font-size="50">
        <text x="360" y="-110">2</text>
        <text x="510" y="-110">2</text>
        <text x="360" y="40">2</text>
        <text x="510" y="40">1</text>
        <text x="360" y="190">1</text>
        <text x="510" y="190">1</text>
        <text x="360" y="340">2</text>
        <text x="510" y="340">2</text>
    </g>
    -->
</svg>
