<?xml version="1.0" encoding="UTF-8" standalone="no"?>
<svg xmlns="http://www.w3.org/2000/svg" version="1.1"
    width="400" height="600"
    viewBox="100 -300 600 900"
>
    <circle cx="100" cy="150" r="400" fill="none" stroke="black" stroke-width="60.0" stroke-opacity="0.15" />
    <circle cx="600" cy="50" r="275" fill="none" stroke="black" stroke-width="41.25" stroke-opacity="0.15" />

    <circle cx="100" cy="150" r="430" fill="none" stroke="black" style="stroke-dasharray:4,2;" stroke-width="1.5" />
    <circle cx="100" cy="150" r="370" fill="none" stroke="black" stroke-width="2" />

    <circle cx="600" cy="50" r="295.625" fill="none" stroke="black" style="stroke-dasharray:4,2;" stroke-width="1.5" />
    <circle cx="600" cy="50" r="254.375" fill="none" stroke="black" stroke-width="2" />

    <g id="grid" stroke="blue" fill="none">
        <rect x="0" y="-500" width="300" height="300" />
        <rect x="300" y="-500" width="300" height="300" />
        <rect x="600" y="-500" width="300" height="300" />
        <rect x="0" y="-200" width="300" height="300" />
        <rect x="300" y="-200" width="300" height="300" />
        <rect x="600" y="-200" width="300" height="300" />
        <rect x="0" y="100" width="300" height="300" />
        <rect x="300" y="100" width="300" height="300" />
        <rect x="600" y="100" width="300" height="300" />
        <rect x="0" y="400" width="300" height="300" />
        <rect x="300" y="400" width="300" height="300" />
        <rect x="600" y="400" width="300" height="300" />
        <rect x="0" y="700" width="300" height="300" />
        <rect x="300" y="700" width="300" height="300" />
        <rect x="600" y="700" width="300" height="300" />
    </g>

    <g id="numbers" stroke="black" fill="blue" font-size="50">
        <text x="125" y="-325">1</text>
        <text x="425" y="-325">1</text>
        <text x="725" y="-325">1</text>
        <text x="125" y="-25">1</text>
        <text x="425" y="-25">2</text>
        <text x="725" y="-25">1</text>
        <text x="125" y="275">0</text>
        <text x="425" y="275">2</text>
        <text x="725" y="275">1</text>
        <text x="125" y="575">1</text>
        <text x="425" y="575">1</text>
        <text x="725" y="575">0</text>
        <text x="125" y="875">0</text>
        <text x="425" y="875">0</text>
        <text x="725" y="875">0</text>
    </g>
</svg>
