<?xml version="1.0" encoding="UTF-8" standalone="no"?>
<svg xmlns="http://www.w3.org/2000/svg" version="1.1"
    width="400" height="600"
    viewBox="280 -220 360 640"
>
    <circle cx="100" cy="150" r="400" fill="none" stroke="black" stroke-width="60.0" stroke-opacity="0.15" />
    <circle cx="600" cy="50" r="275" fill="none" stroke="black" stroke-width="41.25" stroke-opacity="0.15" />

    <circle cx="100" cy="150" r="430" fill="none" stroke="black" style="stroke-dasharray:4,2;" stroke-width="1.5" />
    <circle cx="100" cy="150" r="370" fill="none" stroke="black" stroke-width="2" />

    <circle cx="600" cy="50" r="295.625" fill="none" stroke="black" style="stroke-dasharray:4,2;" stroke-width="1.5" />
    <circle cx="600" cy="50" r="254.375" fill="none" stroke="black" stroke-width="2" />

    <g id="grid" stroke="blue" fill="none">
        <rect x="300" y="-200" width="150" height="150" />
        <rect x="450" y="-200" width="150" height="150" />
        <rect x="300" y="-50" width="150" height="150" />
        <rect x="450" y="-50" width="150" height="150" />
        <rect x="300" y="100" width="150" height="150" />
        <rect x="450" y="100" width="150" height="150" />
        <rect x="300" y="250" width="150" height="150" />
        <rect x="450" y="250" width="150" height="150" />
    </g>

    <g id="numbers" stroke="black" fill="blue" font-size="50">
        <text x="360" y="-110">2</text>
        <text x="510" y="-110">2</text>
        <text x="360" y="40">2</text>
        <text x="510" y="40">1</text>
        <text x="360" y="190">1</text>
        <text x="510" y="190">1</text>
        <text x="360" y="340">2</text>
        <text x="510" y="340">2</text>
    </g>
</svg>
